<svg width="89" height="89" viewBox="0 0 89 89" fill="none" xmlns="http://www.w3.org/2000/svg">
<path d="M70.5004 17.2588C70.3451 17.073 70.1373 16.9384 69.9043 16.8725C69.6712 16.8067 69.4238 16.8126 69.1942 16.8896L23.5682 32.1445C23.3622 32.2133 23.1786 32.3366 23.037 32.5013C22.8954 32.666 22.801 32.866 22.7638 33.08C22.7267 33.294 22.7482 33.5141 22.826 33.7169C22.9038 33.9197 23.0351 34.0976 23.2059 34.2318L34.881 43.4058V52.0195C34.8809 52.2448 34.9441 52.4656 35.0633 52.6568C35.1826 52.848 35.3532 53.0018 35.5557 53.1007C35.7582 53.1996 35.9843 53.2396 36.2084 53.2162C36.4326 53.1928 36.6456 53.1068 36.8232 52.9682L41.9623 48.9683L49.2862 54.7234C49.4237 54.8313 49.583 54.908 49.7531 54.9482C49.9232 54.9883 50.1 54.991 50.2712 54.9559C50.4424 54.9208 50.6039 54.8489 50.7445 54.7451C50.8851 54.6413 51.0014 54.5082 51.0854 54.3549L70.6331 18.6049C70.7484 18.3931 70.7974 18.1515 70.7737 17.9115C70.75 17.6714 70.6548 17.4441 70.5004 17.2588ZM62.764 21.5777L36.1062 41.3082L26.4482 33.7189L62.764 21.5777ZM37.2873 49.5589V45.2964L40.0125 47.438L37.2873 49.5589ZM49.6568 51.9548L38.0676 42.8496L65.899 22.25L49.6568 51.9548Z" fill="white"/>
<path d="M20.6204 66.8676C20.3164 66.7705 19.9864 66.7981 19.7028 66.9443C19.4191 67.0905 19.2052 67.3433 19.1079 67.6472C18.8012 68.6056 18.5139 69.6265 18.2554 70.6818C18.1793 70.9918 18.2295 71.3193 18.395 71.5922C18.5604 71.8652 18.8274 72.0612 19.1374 72.1372C19.4474 72.2133 19.7749 72.1631 20.0478 71.9976C20.3208 71.8322 20.5168 71.5651 20.5929 71.2552C20.839 70.2535 21.1105 69.2862 21.4 68.3801C21.4482 68.2296 21.4663 68.071 21.4532 67.9135C21.4401 67.756 21.3961 67.6027 21.3237 67.4622C21.2513 67.3217 21.1519 67.1969 21.0312 67.0949C20.9105 66.9928 20.7709 66.9156 20.6204 66.8676Z" fill="white"/>
<path d="M32.5561 55.4264C31.0355 54.9796 29.408 55.064 27.9416 55.6657C28.3136 54.043 29.0113 52.5129 29.9925 51.168C30.1817 50.9167 30.2649 50.6013 30.2244 50.2894C30.1839 49.9774 30.0228 49.6938 29.7757 49.4991C29.5286 49.3045 29.2151 49.2144 28.9023 49.2482C28.5896 49.2819 28.3025 49.4368 28.1025 49.6796C27.965 49.8542 25.3945 53.1673 25.3573 57.1967C23.5206 58.7789 22.0379 60.7305 21.0061 62.9243C20.9349 63.0654 20.8922 63.2191 20.8803 63.3767C20.8685 63.5343 20.8878 63.6926 20.9372 63.8428C20.9866 63.9929 21.0651 64.1318 21.1681 64.2516C21.2712 64.3714 21.3969 64.4697 21.5379 64.5409C21.679 64.6122 21.8327 64.6549 21.9903 64.6668C22.1479 64.6786 22.3063 64.6593 22.4564 64.6099C22.7596 64.5101 23.0107 64.2941 23.1546 64.0092C23.8461 62.5837 24.7374 61.2642 25.8015 60.0904C25.8551 60.2513 25.914 60.4117 25.9781 60.5717C26.417 61.7979 27.2492 62.8444 28.345 63.5482C29.4409 64.2519 30.7388 64.5733 32.0364 64.4622C33.0899 64.3397 34.0686 63.8564 34.8064 63.0944C35.5441 62.3323 35.9954 61.3385 36.0837 60.2815C36.3642 58.151 34.9136 56.1531 32.5561 55.4264ZM33.6981 59.968C33.674 60.4948 33.4635 60.9958 33.1043 61.3818C32.745 61.7677 32.2603 62.0135 31.7366 62.0752C30.967 62.1205 30.204 61.91 29.5666 61.4763C28.9291 61.0427 28.453 60.4104 28.2125 59.6779C28.0481 59.2674 27.9286 58.8403 27.8564 58.404C28.4369 58.0175 29.0921 57.7571 29.7796 57.6398C30.467 57.5224 31.1715 57.5507 31.8473 57.7227C33.0615 58.1001 33.8225 59.0234 33.6981 59.968Z" fill="white"/>
</svg>
