<svg width="66" height="66" viewBox="0 0 66 66" fill="none" xmlns="http://www.w3.org/2000/svg">
<path d="M33.0008 1.7998C15.7693 1.7998 1.80078 15.7683 1.80078 32.9998C1.80078 50.2313 15.7693 64.1998 33.0008 64.1998C50.2323 64.1998 64.2008 50.2313 64.2008 32.9998C64.2008 15.7683 50.2323 1.7998 33.0008 1.7998ZM25.3633 45.9316H19.0453V25.5996H25.3633V45.9316ZM22.1653 23.1036C20.1698 23.1036 18.8795 21.6898 18.8795 19.9413C18.8795 18.1571 20.2088 16.7856 22.2465 16.7856C24.2843 16.7856 25.5323 18.1571 25.5713 19.9413C25.5713 21.6898 24.2843 23.1036 22.1653 23.1036ZM48.4383 45.9316H42.1203V34.6638C42.1203 32.0411 41.2038 30.2601 38.919 30.2601C37.1738 30.2601 36.137 31.4658 35.6788 32.6261C35.5098 33.0388 35.4675 33.6238 35.4675 34.2056V45.9283H29.1463V32.0833C29.1463 29.5451 29.065 27.4228 28.9805 25.5963H34.4698L34.759 28.4206H34.8858C35.7178 27.0946 37.7555 25.1381 41.1648 25.1381C45.3215 25.1381 48.4383 27.9233 48.4383 33.9098V45.9316Z" fill="white"/>
</svg>
