<svg width="67" height="67" viewBox="0 0 67 67" fill="none" xmlns="http://www.w3.org/2000/svg">
<circle cx="33.5" cy="33.5" r="32.5" fill="white"/>
<path fill-rule="evenodd" clip-rule="evenodd" d="M16.8296 20.9017C17.3058 20.3716 18.1129 20.3358 18.6324 20.8217L33.0827 34.3381L47.5329 20.8217C48.0524 20.3358 48.8596 20.3716 49.3358 20.9017C49.812 21.4318 49.7769 22.2555 49.2574 22.7414L33.9449 37.0643C33.4571 37.5207 32.7083 37.5207 32.2204 37.0643L16.9079 22.7414C16.3884 22.2555 16.3533 21.4318 16.8296 20.9017Z" fill="#22417E"/>
<path fill-rule="evenodd" clip-rule="evenodd" d="M16.4941 21.7816C16.4941 21.0625 17.0654 20.4795 17.7702 20.4795H48.3952C49.0999 20.4795 49.6712 21.0625 49.6712 21.7816V43.917C49.6712 44.6077 49.4024 45.27 48.9237 45.7584C48.4451 46.2468 47.796 46.5212 47.1191 46.5212H19.0462C18.3694 46.5212 17.7202 46.2468 17.2416 45.7584C16.763 45.27 16.4941 44.6077 16.4941 43.917V21.7816ZM19.0462 23.0837V43.917H47.1191V23.0837H19.0462Z" fill="#22417E"/>
<path fill-rule="evenodd" clip-rule="evenodd" d="M31.2403 32.6205C31.7165 33.1506 31.6814 33.9742 31.1619 34.4602L19.027 45.8109C18.5075 46.2969 17.7003 46.2611 17.2241 45.731C16.7479 45.2009 16.783 44.3772 17.3025 43.8913L29.4374 32.5405C29.9569 32.0546 30.7641 32.0904 31.2403 32.6205Z" fill="#22417E"/>
<path fill-rule="evenodd" clip-rule="evenodd" d="M34.9253 32.6205C35.4015 32.0904 36.2086 32.0546 36.7281 32.5405L48.8633 43.8913C49.3828 44.3773 49.4179 45.2009 48.9417 45.731C48.4655 46.2611 47.6583 46.297 47.1388 45.811L35.0036 34.4602C34.4841 33.9742 34.449 33.1506 34.9253 32.6205Z" fill="#22417E"/>
</svg>
