<svg width="24" height="24" viewBox="0 0 24 24" fill="none" xmlns="http://www.w3.org/2000/svg">
<path fill-rule="evenodd" clip-rule="evenodd" d="M12 2.625C12.6213 2.625 13.125 3.12868 13.125 3.75V20.25C13.125 20.8713 12.6213 21.375 12 21.375C11.3787 21.375 10.875 20.8713 10.875 20.25V3.75C10.875 3.12868 11.3787 2.625 12 2.625Z" fill="#22417E"/>
<path fill-rule="evenodd" clip-rule="evenodd" d="M4.4545 12.7045C4.89384 12.2652 5.60616 12.2652 6.0455 12.7045L12 18.659L17.9545 12.7045C18.3938 12.2652 19.1062 12.2652 19.5455 12.7045C19.9848 13.1438 19.9848 13.8562 19.5455 14.2955L12.7955 21.0455C12.3562 21.4848 11.6438 21.4848 11.2045 21.0455L4.4545 14.2955C4.01517 13.8562 4.01517 13.1438 4.4545 12.7045Z" fill="#22417E"/>
</svg>
